<svg width="65" height="65" viewBox="0 0 65 65" xmlns="http://www.w3.org/2000/svg">
<path d="M30.4435 1.58116C31.4962 0.259924 33.5038 0.259924 34.5565 1.58116V1.58116C35.4448 2.69608 37.0597 2.90009 38.1973 2.0411V2.0411C39.5455 1.02317 41.4901 1.52244 42.1811 3.06395V3.06395C42.7642 4.36476 44.2776 4.96398 45.5932 4.4149V4.4149C47.1521 3.76422 48.9114 4.7314 49.1974 6.39632V6.39632C49.4387 7.80127 50.7556 8.75805 52.1663 8.55338V8.55338C53.8381 8.31084 55.3016 9.68515 55.1645 11.3689V11.3689C55.0488 12.7897 56.0864 14.0439 57.5037 14.1965V14.1965C59.1833 14.3774 60.2591 16.0724 59.7076 17.6692V17.6692C59.2422 19.0166 59.9352 20.4895 61.2701 20.9897V20.9897C62.8519 21.5826 63.4723 23.492 62.5411 24.9014V24.9014C61.7552 26.0907 62.0602 27.6897 63.2287 28.5062V28.5062C64.6134 29.4738 64.7395 31.4775 63.487 32.611V32.611C62.43 33.5675 62.3278 35.1921 63.2565 36.2736V36.2736C64.3571 37.5552 63.9809 39.5272 62.4858 40.3137V40.3137C61.2242 40.9773 60.7212 42.5254 61.3518 43.8039V43.8039C62.0991 45.3189 61.2443 47.1354 59.6006 47.5254V47.5254C58.2136 47.8544 57.3414 49.2288 57.6342 50.6239V50.6239C57.9813 52.2771 56.7016 53.8241 55.0125 53.793V53.793C53.5873 53.7667 52.4007 54.881 52.3374 56.3051V56.3051C52.2623 57.9927 50.6381 59.1728 49.0099 58.7226V58.7226C47.6359 58.3428 46.2095 59.1269 45.794 60.4906V60.4906C45.3017 62.1065 43.435 62.8456 41.9699 62.0047V62.0047C40.7336 61.295 39.157 61.6998 38.4154 62.9173V62.9173C37.5366 64.36 35.5449 64.6117 34.3349 63.4328V63.4328C33.3139 62.438 31.6861 62.438 30.6651 63.4328V63.4328C29.4551 64.6117 27.4634 64.36 26.5846 62.9173V62.9173C25.843 61.6998 24.2664 61.295 23.0301 62.0047V62.0047C21.565 62.8456 19.6983 62.1065 19.206 60.4906V60.4906C18.7905 59.1269 17.3641 58.3428 15.9901 58.7226V58.7226C14.3619 59.1728 12.7377 57.9927 12.6626 56.3051V56.3051C12.5993 54.881 11.4127 53.7667 9.98747 53.793V53.793C8.29845 53.8241 7.01874 52.2771 7.36578 50.6239V50.6239C7.65863 49.2288 6.78642 47.8544 5.3994 47.5254V47.5254C3.75571 47.1354 2.9009 45.3189 3.64819 43.8039V43.8039C4.27879 42.5254 3.77578 40.9773 2.51416 40.3137V40.3137C1.01908 39.5272 0.642888 37.5552 1.74347 36.2736V36.2736C2.67219 35.1921 2.56999 33.5675 1.51304 32.611V32.611C0.260513 31.4775 0.386573 29.4738 1.77129 28.5062V28.5062C2.93979 27.6897 3.24481 26.0907 2.45895 24.9014V24.9014C1.52767 23.492 2.14806 21.5826 3.72992 20.9897V20.9897C5.06477 20.4895 5.75784 19.0166 5.29244 17.6692V17.6692C4.74093 16.0725 5.81667 14.3774 7.49627 14.1965V14.1965C8.9136 14.0439 9.95118 12.7897 9.83549 11.3689V11.3689C9.6984 9.68515 11.1619 8.31084 12.8337 8.55338V8.55338C14.2444 8.75805 15.5613 7.80127 15.8026 6.39632V6.39632C16.0886 4.7314 17.8479 3.76422 19.4068 4.4149V4.4149C20.7224 4.96398 22.2358 4.36475 22.8189 3.06395V3.06395C23.5099 1.52244 25.4545 1.02317 26.8027 2.0411V2.0411C27.9403 2.90009 29.5552 2.69608 30.4435 1.58116V1.58116Z"/>
</svg>
