<svg width="10" height="13" viewBox="0 0 10 13" xmlns="http://www.w3.org/2000/svg">
<path d="M6.50807 12.2427C7.93941 9.84557 7.34014 6.82892 5.08305 5.07027C5.08174 5.06928 5.08042 5.06803 5.07936 5.06729L5.08912 5.09017L5.08754 5.10733C5.5273 6.20316 5.46561 7.40619 4.92539 8.43835L4.54468 9.16608L4.42789 8.36199C4.34853 7.81656 4.13049 7.29626 3.79461 6.85081H3.74161L3.71367 6.7762C3.71762 7.60963 3.53149 8.43064 3.16633 9.20513C2.68729 10.2186 2.75768 11.3873 3.35484 12.332L3.76692 12.9841L3.02555 12.6886C1.80301 12.2014 0.82567 11.2627 0.343986 10.1134C-0.195701 8.83007 -0.0957787 7.34202 0.611588 6.13377C0.980431 5.50527 1.23881 4.83797 1.37986 4.15003L1.51775 3.47577L1.86945 4.07716C2.0374 4.36392 2.16105 4.67432 2.23777 5.00038L2.24568 5.00809L2.25385 5.06032L2.2615 5.05808C3.31503 3.73766 3.9462 2.09466 4.03822 0.43102L4.06195 0L4.44529 0.23578C6.00978 1.19755 7.09627 2.74057 7.43189 4.47435L7.43954 4.50992L7.44349 4.51539L7.46063 4.49251C7.76725 4.11049 7.92913 3.65609 7.92913 3.17781V2.43714L8.40291 3.02759C9.50443 4.39999 10.0692 6.10243 9.99323 7.82154C9.8999 9.84507 8.73009 11.6211 6.86373 12.5834L6.05565 13L6.50807 12.2427Z"/>
</svg>
