<svg width="11" height="11" viewBox="0 0 11 11" xmlns="http://www.w3.org/2000/svg">
<g clip-path="url(#clip0_529_317)">
<path d="M2.11516 6.51849L10.5773 6.51849C10.6609 6.51857 10.7426 6.54421 10.8121 6.59218C10.8816 6.64015 10.9358 6.7083 10.9678 6.78801C10.9998 6.86772 11.0082 6.95543 10.9919 7.04006C10.9756 7.12468 10.9354 7.20242 10.8763 7.26347L8.05556 10.1735C8.01682 10.2164 7.97011 10.2508 7.91821 10.2747C7.86631 10.2985 7.81028 10.3114 7.75347 10.3124C7.69666 10.3134 7.64023 10.3027 7.58755 10.2807C7.53486 10.2587 7.48701 10.2261 7.44683 10.1846C7.40665 10.1432 7.37498 10.0938 7.3537 10.0394C7.33242 9.98509 7.32197 9.92687 7.32297 9.86826C7.32397 9.80965 7.33641 9.75185 7.35953 9.6983C7.38266 9.64476 7.416 9.59657 7.45757 9.5566L9.55561 7.39151L2.11516 7.39151C2.00294 7.39151 1.89532 7.34552 1.81598 7.26366C1.73663 7.1818 1.69205 7.07077 1.69205 6.955C1.69205 6.83923 1.73663 6.72821 1.81598 6.64634C1.89532 6.56448 2.00294 6.51849 2.11516 6.51849ZM2.94444 0.826402L0.123739 3.73647C0.0646414 3.79751 0.0244043 3.87526 0.00810944 3.95988C-0.00818542 4.04451 0.000192853 4.13222 0.0321861 4.21193C0.0641793 4.29164 0.118352 4.35979 0.187863 4.40776C0.257374 4.45573 0.339105 4.48137 0.422733 4.48145L8.88485 4.48145C8.99706 4.48145 9.10468 4.43546 9.18403 4.35359C9.26337 4.27173 9.30795 4.16071 9.30795 4.04494C9.30795 3.92917 9.26337 3.81814 9.18403 3.73628C9.10468 3.65442 8.99706 3.60843 8.88485 3.60843L1.44439 3.60843L3.54243 1.44334C3.584 1.40337 3.61734 1.35518 3.64047 1.30164C3.66359 1.24809 3.67603 1.19029 3.67703 1.13168C3.67803 1.07307 3.66758 1.01485 3.6463 0.9605C3.62502 0.906147 3.59335 0.856772 3.55317 0.815322C3.51299 0.773871 3.46514 0.741194 3.41245 0.71924C3.35977 0.697286 3.30334 0.686504 3.24653 0.687539C3.18972 0.688573 3.13369 0.701401 3.08179 0.725259C3.02989 0.749117 2.98318 0.783515 2.94444 0.826402Z" />
</g>
</svg>
