<svg width="18" height="18" viewBox="0 0 18 18" xmlns="http://www.w3.org/2000/svg">
<g clip-path="url(#clip0_68_10)">
<path d="M16.528 2.20922C16.0674 1.71414 15.5099 1.31909 14.8902 1.04862C14.2704 0.778143 13.6017 0.638026 12.9255 0.636976C12.2487 0.637756 11.5794 0.777669 10.959 1.04803C10.3386 1.31839 9.78042 1.71341 9.31911 2.20857L9.00132 2.54439L8.68352 2.20857C6.83326 0.217182 3.71893 0.102819 1.72758 1.95309C1.63932 2.0351 1.5541 2.12032 1.47209 2.20857C-0.490696 4.32568 -0.490696 7.59756 1.47209 9.71466L8.5343 17.1622C8.77862 17.4201 9.18579 17.4312 9.44373 17.1869C9.45217 17.1789 9.46039 17.1707 9.46838 17.1622L16.528 9.71466C18.4907 7.59779 18.4907 4.32609 16.528 2.20922ZM15.5971 8.82882H15.5965L9.00132 15.7849L2.40553 8.82882C0.90608 7.21116 0.90608 4.71143 2.40553 3.09377C3.76722 1.61792 6.06755 1.52538 7.5434 2.88706C7.61505 2.95317 7.68401 3.02213 7.75012 3.09377L8.5343 3.92107C8.79272 4.17784 9.20995 4.17784 9.46838 3.92107L10.2526 3.09441C11.6142 1.61856 13.9146 1.52602 15.3904 2.8877C15.4621 2.95381 15.531 3.02277 15.5971 3.09441C17.1096 4.71464 17.1207 7.21893 15.5971 8.82882Z"/>
</g>
</svg>
